<mxfile host="app.diagrams.net" agent="Mozilla/5.0 (Windows NT 10.0; Win64; x64) AppleWebKit/537.36 (KHTML, like Gecko) Chrome/131.0.0.0 Safari/537.36" version="25.0.1">
  <diagram name="Page-1" id="2YBvvXClWsGukQMizWep">
    <mxGraphModel dx="1600" dy="836" grid="1" gridSize="10" guides="1" tooltips="1" connect="1" arrows="1" fold="1" page="1" pageScale="1" pageWidth="850" pageHeight="1100" math="0" shadow="0">
      <root>
        <mxCell id="0" />
        <mxCell id="1" parent="0" />
        <mxCell id="JIC-DEpIo97pTenEZ01R-1" value="Customer" style="shape=umlLifeline;perimeter=lifelinePerimeter;whiteSpace=wrap;html=1;container=1;dropTarget=0;collapsible=0;recursiveResize=0;outlineConnect=0;portConstraint=eastwest;newEdgeStyle={&quot;curved&quot;:0,&quot;rounded&quot;:0};" parent="1" vertex="1">
          <mxGeometry x="41" y="120" width="100" height="80" as="geometry" />
        </mxCell>
        <mxCell id="JIC-DEpIo97pTenEZ01R-2" value="&lt;font style=&quot;font-size: 16px;&quot;&gt;Sequence Diagram for Restaurent ordering system&lt;/font&gt;" style="text;html=1;align=center;verticalAlign=middle;whiteSpace=wrap;rounded=0;" parent="1" vertex="1">
          <mxGeometry x="220" y="10" width="400" height="50" as="geometry" />
        </mxCell>
        <mxCell id="JIC-DEpIo97pTenEZ01R-3" value="" style="html=1;points=[[0,0,0,0,5],[0,1,0,0,-5],[1,0,0,0,5],[1,1,0,0,-5]];perimeter=orthogonalPerimeter;outlineConnect=0;targetShapes=umlLifeline;portConstraint=eastwest;newEdgeStyle={&quot;curved&quot;:0,&quot;rounded&quot;:0};" parent="1" vertex="1">
          <mxGeometry x="86" y="200" width="10" height="360" as="geometry" />
        </mxCell>
        <mxCell id="JIC-DEpIo97pTenEZ01R-4" value="Waiter" style="shape=umlLifeline;perimeter=lifelinePerimeter;whiteSpace=wrap;html=1;container=1;dropTarget=0;collapsible=0;recursiveResize=0;outlineConnect=0;portConstraint=eastwest;newEdgeStyle={&quot;curved&quot;:0,&quot;rounded&quot;:0};" parent="1" vertex="1">
          <mxGeometry x="239" y="120" width="100" height="80" as="geometry" />
        </mxCell>
        <mxCell id="JIC-DEpIo97pTenEZ01R-5" value="Kitchen" style="shape=umlLifeline;perimeter=lifelinePerimeter;whiteSpace=wrap;html=1;container=1;dropTarget=0;collapsible=0;recursiveResize=0;outlineConnect=0;portConstraint=eastwest;newEdgeStyle={&quot;curved&quot;:0,&quot;rounded&quot;:0};" parent="1" vertex="1">
          <mxGeometry x="436" y="120" width="100" height="190" as="geometry" />
        </mxCell>
        <mxCell id="JIC-DEpIo97pTenEZ01R-6" value="Cashier" style="shape=umlLifeline;perimeter=lifelinePerimeter;whiteSpace=wrap;html=1;container=1;dropTarget=0;collapsible=0;recursiveResize=0;outlineConnect=0;portConstraint=eastwest;newEdgeStyle={&quot;curved&quot;:0,&quot;rounded&quot;:0};" parent="1" vertex="1">
          <mxGeometry x="659" y="120" width="100" height="360" as="geometry" />
        </mxCell>
        <mxCell id="JIC-DEpIo97pTenEZ01R-7" value="" style="html=1;points=[[0,0,0,0,5],[0,1,0,0,-5],[1,0,0,0,5],[1,1,0,0,-5]];perimeter=orthogonalPerimeter;outlineConnect=0;targetShapes=umlLifeline;portConstraint=eastwest;newEdgeStyle={&quot;curved&quot;:0,&quot;rounded&quot;:0};" parent="1" vertex="1">
          <mxGeometry x="284" y="200" width="10" height="280" as="geometry" />
        </mxCell>
        <mxCell id="JIC-DEpIo97pTenEZ01R-9" value="" style="endArrow=open;endFill=1;endSize=12;html=1;rounded=0;" parent="1" edge="1">
          <mxGeometry width="160" relative="1" as="geometry">
            <mxPoint x="96" y="219" as="sourcePoint" />
            <mxPoint x="284" y="219" as="targetPoint" />
          </mxGeometry>
        </mxCell>
        <mxCell id="X8SkvvSlqbV9mBgZGtv6-1" value="Request Menu" style="text;html=1;align=center;verticalAlign=middle;whiteSpace=wrap;rounded=0;" vertex="1" parent="1">
          <mxGeometry x="130" y="190" width="100" height="30" as="geometry" />
        </mxCell>
        <mxCell id="X8SkvvSlqbV9mBgZGtv6-2" value="" style="endArrow=open;endSize=12;dashed=1;html=1;rounded=0;" edge="1" parent="1">
          <mxGeometry width="160" relative="1" as="geometry">
            <mxPoint x="283.9999999999999" y="259" as="sourcePoint" />
            <mxPoint x="96" y="259" as="targetPoint" />
          </mxGeometry>
        </mxCell>
        <mxCell id="X8SkvvSlqbV9mBgZGtv6-4" value="Provide Menu" style="text;html=1;align=center;verticalAlign=middle;whiteSpace=wrap;rounded=0;" vertex="1" parent="1">
          <mxGeometry x="130" y="230" width="100" height="30" as="geometry" />
        </mxCell>
        <mxCell id="X8SkvvSlqbV9mBgZGtv6-5" value="Place Order" style="text;html=1;align=center;verticalAlign=middle;whiteSpace=wrap;rounded=0;" vertex="1" parent="1">
          <mxGeometry x="130" y="263" width="100" height="30" as="geometry" />
        </mxCell>
        <mxCell id="X8SkvvSlqbV9mBgZGtv6-6" value="" style="endArrow=open;endFill=1;endSize=12;html=1;rounded=0;" edge="1" parent="1">
          <mxGeometry width="160" relative="1" as="geometry">
            <mxPoint x="96" y="289" as="sourcePoint" />
            <mxPoint x="284" y="289" as="targetPoint" />
          </mxGeometry>
        </mxCell>
        <mxCell id="X8SkvvSlqbV9mBgZGtv6-7" value="" style="html=1;points=[[0,0,0,0,5],[0,1,0,0,-5],[1,0,0,0,5],[1,1,0,0,-5]];perimeter=orthogonalPerimeter;outlineConnect=0;targetShapes=umlLifeline;portConstraint=eastwest;newEdgeStyle={&quot;curved&quot;:0,&quot;rounded&quot;:0};" vertex="1" parent="1">
          <mxGeometry x="481" y="305" width="10" height="70" as="geometry" />
        </mxCell>
        <mxCell id="X8SkvvSlqbV9mBgZGtv6-8" value="" style="endArrow=open;endFill=1;endSize=12;html=1;rounded=0;" edge="1" parent="1">
          <mxGeometry width="160" relative="1" as="geometry">
            <mxPoint x="294" y="342.66" as="sourcePoint" />
            <mxPoint x="482" y="342.66" as="targetPoint" />
          </mxGeometry>
        </mxCell>
        <mxCell id="X8SkvvSlqbV9mBgZGtv6-9" value="Send Order" style="text;html=1;align=center;verticalAlign=middle;whiteSpace=wrap;rounded=0;" vertex="1" parent="1">
          <mxGeometry x="335" y="317" width="100" height="30" as="geometry" />
        </mxCell>
        <mxCell id="X8SkvvSlqbV9mBgZGtv6-10" value="" style="endArrow=open;endSize=12;dashed=1;html=1;rounded=0;" edge="1" parent="1">
          <mxGeometry width="160" relative="1" as="geometry">
            <mxPoint x="481.9999999999999" y="370" as="sourcePoint" />
            <mxPoint x="294" y="370" as="targetPoint" />
          </mxGeometry>
        </mxCell>
        <mxCell id="X8SkvvSlqbV9mBgZGtv6-11" value="Meal Ready" style="text;html=1;align=center;verticalAlign=middle;whiteSpace=wrap;rounded=0;" vertex="1" parent="1">
          <mxGeometry x="336" y="345" width="100" height="30" as="geometry" />
        </mxCell>
        <mxCell id="X8SkvvSlqbV9mBgZGtv6-12" value="" style="endArrow=open;endSize=12;dashed=1;html=1;rounded=0;" edge="1" parent="1">
          <mxGeometry width="160" relative="1" as="geometry">
            <mxPoint x="283.9999999999999" y="387" as="sourcePoint" />
            <mxPoint x="96" y="387" as="targetPoint" />
          </mxGeometry>
        </mxCell>
        <mxCell id="X8SkvvSlqbV9mBgZGtv6-13" value="Serve Meal" style="text;html=1;align=center;verticalAlign=middle;whiteSpace=wrap;rounded=0;" vertex="1" parent="1">
          <mxGeometry x="130" y="360" width="100" height="30" as="geometry" />
        </mxCell>
        <mxCell id="X8SkvvSlqbV9mBgZGtv6-14" value="" style="endArrow=open;endFill=1;endSize=12;html=1;rounded=0;" edge="1" parent="1">
          <mxGeometry width="160" relative="1" as="geometry">
            <mxPoint x="96" y="420" as="sourcePoint" />
            <mxPoint x="284" y="420" as="targetPoint" />
          </mxGeometry>
        </mxCell>
        <mxCell id="X8SkvvSlqbV9mBgZGtv6-15" value="Request Bill" style="text;html=1;align=center;verticalAlign=middle;whiteSpace=wrap;rounded=0;" vertex="1" parent="1">
          <mxGeometry x="130" y="390" width="100" height="30" as="geometry" />
        </mxCell>
        <mxCell id="X8SkvvSlqbV9mBgZGtv6-16" value="" style="endArrow=open;endSize=12;dashed=1;html=1;rounded=0;" edge="1" parent="1">
          <mxGeometry width="160" relative="1" as="geometry">
            <mxPoint x="283.9999999999999" y="460" as="sourcePoint" />
            <mxPoint x="96" y="460" as="targetPoint" />
          </mxGeometry>
        </mxCell>
        <mxCell id="X8SkvvSlqbV9mBgZGtv6-17" value="Provide Bill" style="text;html=1;align=center;verticalAlign=middle;whiteSpace=wrap;rounded=0;" vertex="1" parent="1">
          <mxGeometry x="130" y="430" width="100" height="30" as="geometry" />
        </mxCell>
        <mxCell id="X8SkvvSlqbV9mBgZGtv6-18" value="" style="endArrow=open;endFill=1;endSize=12;html=1;rounded=0;" edge="1" parent="1" target="X8SkvvSlqbV9mBgZGtv6-20">
          <mxGeometry width="160" relative="1" as="geometry">
            <mxPoint x="96" y="500" as="sourcePoint" />
            <mxPoint x="670" y="500" as="targetPoint" />
          </mxGeometry>
        </mxCell>
        <mxCell id="X8SkvvSlqbV9mBgZGtv6-19" value="" style="endArrow=none;dashed=1;html=1;rounded=0;" edge="1" parent="1" target="JIC-DEpIo97pTenEZ01R-7">
          <mxGeometry width="50" height="50" relative="1" as="geometry">
            <mxPoint x="290" y="600" as="sourcePoint" />
            <mxPoint x="510" y="550" as="targetPoint" />
          </mxGeometry>
        </mxCell>
        <mxCell id="X8SkvvSlqbV9mBgZGtv6-20" value="" style="html=1;points=[[0,0,0,0,5],[0,1,0,0,-5],[1,0,0,0,5],[1,1,0,0,-5]];perimeter=orthogonalPerimeter;outlineConnect=0;targetShapes=umlLifeline;portConstraint=eastwest;newEdgeStyle={&quot;curved&quot;:0,&quot;rounded&quot;:0};" vertex="1" parent="1">
          <mxGeometry x="704" y="480" width="10" height="80" as="geometry" />
        </mxCell>
        <mxCell id="X8SkvvSlqbV9mBgZGtv6-21" value="Make Payment" style="text;html=1;align=center;verticalAlign=middle;whiteSpace=wrap;rounded=0;" vertex="1" parent="1">
          <mxGeometry x="510" y="470" width="100" height="30" as="geometry" />
        </mxCell>
        <mxCell id="X8SkvvSlqbV9mBgZGtv6-22" value="" style="endArrow=open;endSize=12;dashed=1;html=1;rounded=0;" edge="1" parent="1" target="JIC-DEpIo97pTenEZ01R-3">
          <mxGeometry width="160" relative="1" as="geometry">
            <mxPoint x="703.9999999999999" y="540" as="sourcePoint" />
            <mxPoint x="516" y="540" as="targetPoint" />
          </mxGeometry>
        </mxCell>
        <mxCell id="X8SkvvSlqbV9mBgZGtv6-23" value="Give Receipt" style="text;html=1;align=center;verticalAlign=middle;whiteSpace=wrap;rounded=0;" vertex="1" parent="1">
          <mxGeometry x="506" y="510" width="100" height="30" as="geometry" />
        </mxCell>
        <mxCell id="X8SkvvSlqbV9mBgZGtv6-24" value="" style="endArrow=none;dashed=1;html=1;rounded=0;" edge="1" parent="1">
          <mxGeometry width="50" height="50" relative="1" as="geometry">
            <mxPoint x="709" y="600" as="sourcePoint" />
            <mxPoint x="708.6600000000001" y="560" as="targetPoint" />
          </mxGeometry>
        </mxCell>
        <mxCell id="X8SkvvSlqbV9mBgZGtv6-25" value="" style="endArrow=none;dashed=1;html=1;rounded=0;" edge="1" parent="1">
          <mxGeometry width="50" height="50" relative="1" as="geometry">
            <mxPoint x="486" y="600" as="sourcePoint" />
            <mxPoint x="485.65999999999997" y="375" as="targetPoint" />
          </mxGeometry>
        </mxCell>
        <mxCell id="X8SkvvSlqbV9mBgZGtv6-26" value="" style="endArrow=none;dashed=1;html=1;rounded=0;" edge="1" parent="1">
          <mxGeometry width="50" height="50" relative="1" as="geometry">
            <mxPoint x="91" y="600" as="sourcePoint" />
            <mxPoint x="90.66" y="560" as="targetPoint" />
          </mxGeometry>
        </mxCell>
        <mxCell id="X8SkvvSlqbV9mBgZGtv6-28" value="Confirm Order" style="html=1;align=left;spacingLeft=2;endArrow=block;rounded=0;edgeStyle=orthogonalEdgeStyle;curved=0;rounded=0;" edge="1" parent="1">
          <mxGeometry relative="1" as="geometry">
            <mxPoint x="294" y="290" as="sourcePoint" />
            <Array as="points">
              <mxPoint x="324" y="320" />
            </Array>
            <mxPoint x="299" y="320" as="targetPoint" />
          </mxGeometry>
        </mxCell>
      </root>
    </mxGraphModel>
  </diagram>
</mxfile>
